<?xml version="1.0" standalone="no"?>
<!DOCTYPE svg PUBLIC "-//W3C//DTD SVG 20010904//EN"
 "http://www.w3.org/TR/2001/REC-SVG-20010904/DTD/svg10.dtd">
<svg version="1.0" xmlns="http://www.w3.org/2000/svg"
 width="600.000000pt" height="1312.000000pt" viewBox="0 0 600.000000 1312.000000"
 preserveAspectRatio="xMidYMid meet">
<defs>
  <linearGradient id="logoGold" x1="0%" y1="0%" x2="100%" y2="100%">
    <stop offset="0%" stop-color="#ffe066" />
    <stop offset="30%" stop-color="#f5c842" />
    <stop offset="60%" stop-color="#d4af37" />
    <stop offset="100%" stop-color="#c49a2a" />
  </linearGradient>
</defs>
<g transform="translate(0.000000,1312.000000) scale(0.100000,-0.100000)"
fill="url(#logoGold)" stroke="none">
<path d="M2805 8678 c-277 -23 -583 -121 -810 -258 -33 -20 -67 -39 -76 -42
-37 -14 -222 -164 -315 -255 -300 -296 -489 -661 -575 -1108 -21 -107 -19
-512 3 -640 38 -220 104 -420 201 -610 43 -83 163 -267 226 -345 51 -63 216
-228 281 -282 323 -265 732 -425 1140 -447 175 -9 243 -8 247 4 2 6 -48 11
-135 12 -207 2 -257 8 -447 51 -46 11 -74 21 -65 25 8 3 3 4 -11 1 -16 -3 -59
8 -117 30 -50 20 -96 36 -102 36 -6 0 -8 5 -5 10 4 6 -5 10 -20 10 -14 0 -42
11 -63 24 -20 13 -54 29 -76 36 -29 9 -35 15 -25 22 11 8 10 9 -3 4 -10 -3
-24 1 -32 9 -8 8 -26 19 -41 25 -14 5 -23 14 -20 20 3 5 0 11 -7 12 -7 0 -18
2 -24 2 -19 2 -73 50 -67 60 3 5 1 6 -5 2 -13 -8 -73 32 -114 77 -16 16 -28
27 -28 25 0 -3 -33 27 -74 65 -41 40 -72 77 -69 84 4 9 0 11 -13 6 -13 -5 -15
-3 -9 7 5 9 4 11 -3 6 -7 -4 -17 3 -23 18 -7 14 -17 23 -22 19 -6 -4 -8 0 -4
11 5 11 3 15 -5 10 -8 -5 -9 -2 -5 10 5 13 3 17 -7 13 -9 -4 -23 12 -40 46
-15 29 -24 41 -20 27 l6 -25 -17 23 c-9 12 -13 28 -9 35 4 6 4 9 -1 5 -9 -9
-35 9 -35 24 0 5 6 6 13 2 6 -4 4 2 -7 14 -10 12 -24 19 -30 15 -6 -3 -8 -3
-4 2 4 4 1 17 -7 29 -18 25 -20 47 -2 22 12 -16 13 -16 13 2 0 14 -6 19 -18
17 -13 -3 -24 8 -40 38 -11 23 -20 44 -19 45 2 2 -1 7 -5 10 -4 4 -4 1 0 -5 4
-7 5 -13 2 -13 -11 0 -37 70 -30 81 4 7 3 9 -3 6 -12 -8 -45 71 -36 87 3 6 3
8 -2 4 -9 -9 -35 36 -35 61 0 9 -4 21 -9 27 -13 14 -43 123 -36 134 3 6 -2 10
-12 10 -15 0 -16 2 -3 10 9 6 11 13 5 18 -10 7 -14 19 -20 57 -2 11 -10 45
-19 76 -30 110 -45 523 -23 619 4 14 8 53 11 88 3 34 9 68 13 75 4 6 8 19 10
27 11 74 14 82 31 69 14 -11 15 -11 5 1 -15 17 -17 44 -3 35 5 -3 7 0 4 8 -5
14 54 190 67 195 4 2 4 12 1 24 -3 15 -2 19 7 14 6 -4 11 -4 9 1 -3 14 13 73
23 78 5 4 6 -2 2 -12 -3 -10 -3 -15 2 -11 4 4 9 18 10 30 2 13 16 45 32 71 15
27 37 66 49 87 11 22 24 36 29 32 4 -4 6 -1 3 7 -2 8 3 22 11 32 9 9 26 29 39
43 14 15 21 30 16 38 -6 9 -3 9 9 -1 15 -12 17 -12 11 2 -4 10 5 32 23 55 45
63 197 222 210 222 7 0 12 3 10 8 -1 4 1 8 5 10 5 1 21 16 36 32 16 16 32 28
35 25 4 -3 5 -2 2 1 -2 4 6 15 19 25 28 22 44 25 28 6 -8 -10 -6 -13 8 -13 14
0 16 4 9 17 -7 14 1 24 40 52 32 23 53 32 60 26 7 -6 8 -5 2 2 -11 14 56 52
72 42 6 -3 7 -1 3 5 -4 7 13 21 45 38 42 21 54 23 61 12 7 -10 8 -8 4 5 -4 11
0 20 12 24 9 3 45 19 78 34 34 16 67 29 73 29 6 0 35 11 65 25 61 28 70 30 60
13 -4 -7 -3 -8 5 -4 6 4 8 12 5 18 -5 7 2 9 20 4 20 -5 26 -4 20 5 -5 9 -1 10
14 7 12 -4 22 -3 22 2 0 4 15 10 33 13 17 3 68 13 112 22 123 26 233 33 440
30 185 -4 207 -5 270 -18 17 -4 44 -9 60 -12 92 -15 283 -75 310 -97 12 -11
55 -10 55 0 0 5 -15 13 -32 19 -180 59 -262 83 -299 88 -24 3 -64 10 -89 15
-137 28 -339 35 -535 18z"/>
<path d="M2925 8529 c-71 -3 -149 -5 -173 -5 -23 1 -43 -2 -45 -5 -1 -3 -47
-16 -102 -28 -55 -13 -147 -39 -204 -57 -58 -19 -111 -34 -118 -34 -7 0 -13
-4 -13 -8 0 -10 -78 -46 -97 -45 -7 0 -11 -3 -8 -7 5 -9 -33 -23 -54 -20 -7 1
-10 -3 -7 -8 3 -6 -5 -13 -19 -16 -14 -4 -49 -24 -78 -46 -28 -22 -67 -47 -85
-56 -18 -8 -36 -22 -39 -30 -3 -9 -12 -13 -21 -9 -9 3 -13 3 -10 -1 11 -10
-20 -36 -33 -28 -7 4 -10 3 -7 -2 6 -10 -47 -64 -56 -58 -3 2 -4 1 -1 -2 7
-10 -58 -63 -69 -57 -5 3 -6 2 -3 -4 8 -12 -36 -56 -46 -46 -4 3 -7 -3 -7 -15
0 -12 -6 -21 -12 -19 -7 1 -12 -3 -11 -9 1 -6 -13 -25 -31 -42 -19 -17 -44
-51 -57 -76 -12 -25 -26 -43 -31 -40 -5 3 -7 2 -6 -3 3 -11 -34 -73 -44 -73
-4 0 -8 -8 -8 -17 0 -16 -2 -16 -11 -3 -9 13 -10 12 -5 -3 3 -9 -3 -32 -14
-50 -11 -17 -29 -51 -41 -74 -20 -44 -33 -57 -23 -25 5 13 4 14 -4 3 -6 -8 -8
-20 -5 -27 3 -8 -4 -28 -15 -46 -22 -36 -80 -198 -88 -244 -9 -58 -38 -163
-44 -159 -3 2 -6 -20 -7 -48 0 -29 -5 -92 -9 -142 -10 -97 -9 -216 1 -308 5
-47 3 -57 -7 -51 -10 6 -9 3 1 -9 14 -17 43 -158 43 -206 0 -19 2 -21 10 -10
7 10 8 -1 5 -36 -2 -27 -2 -41 1 -30 3 13 11 -3 22 -45 10 -36 30 -93 45 -128
14 -34 23 -68 19 -75 -4 -6 -4 -9 1 -5 9 9 45 -58 45 -84 0 -10 4 -18 8 -18 4
0 14 -16 21 -35 7 -19 23 -48 36 -64 14 -15 22 -31 18 -34 -3 -4 2 -9 11 -13
10 -4 14 -13 11 -23 -2 -9 5 -27 18 -41 12 -14 18 -20 13 -13 -5 8 -6 16 -3
19 6 6 37 -37 41 -58 7 -33 18 -46 34 -41 9 4 14 3 10 -1 -3 -4 1 -16 10 -25
10 -10 28 -32 42 -50 34 -43 121 -131 130 -131 4 0 10 -10 13 -21 4 -15 11
-20 22 -15 9 3 14 2 11 -3 -3 -5 10 -19 30 -30 32 -19 34 -23 23 -39 -13 -15
-12 -16 4 -3 15 12 21 10 46 -17 16 -17 32 -28 35 -24 3 3 6 1 6 -5 0 -5 6
-10 13 -10 7 0 35 -16 63 -35 91 -64 227 -130 376 -182 53 -18 95 -35 93 -37
-2 -2 9 -4 25 -5 15 -1 36 -5 46 -9 11 -4 30 -10 44 -12 14 -2 52 -9 85 -15
126 -23 357 -32 480 -19 184 19 361 57 423 90 11 6 29 11 39 11 10 0 40 11 68
25 27 14 60 27 73 30 13 2 29 9 36 14 7 6 44 27 82 46 38 20 107 63 153 95 46
33 88 57 94 53 5 -3 7 -1 3 5 -5 9 8 24 24 28 18 3 40 18 40 25 0 13 91 99
102 96 6 -1 15 7 21 17 7 11 19 27 27 36 66 72 85 96 83 101 -1 3 11 19 27 34
17 16 30 35 30 42 0 8 5 11 10 8 6 -3 10 1 10 9 0 8 4 18 10 21 6 3 7 -1 4
-12 -5 -17 -5 -17 6 0 6 9 8 22 5 27 -3 6 -1 10 4 10 6 0 11 8 11 18 0 15 2
15 11 2 9 -12 10 -12 5 3 -4 12 4 28 23 48 16 16 24 29 18 29 -7 0 -4 7 6 14
9 7 17 19 17 27 0 8 18 46 40 86 21 40 43 87 49 105 22 72 38 108 45 101 5 -5
5 2 2 15 -5 14 -3 22 4 22 7 0 9 8 5 20 -3 11 -2 20 3 20 5 0 13 21 17 48 4
26 14 74 22 107 20 78 41 235 31 229 -4 -3 -8 4 -8 16 0 12 3 19 8 17 8 -6 7
233 -1 303 -3 25 -15 88 -27 140 -12 52 -24 106 -27 120 -2 14 -7 32 -10 40
-3 8 -7 28 -8 44 -2 16 -7 31 -12 35 -11 7 -31 56 -38 91 -3 14 -9 26 -15 28
-6 2 -8 8 -5 12 3 5 -8 33 -24 62 -16 29 -34 70 -41 90 -6 21 -17 41 -24 45
-20 12 -38 52 -30 66 4 6 4 9 -1 5 -10 -10 -36 26 -32 44 2 7 2 10 0 6 -9 -15
-25 -8 -19 8 4 10 2 13 -6 8 -8 -5 -9 -2 -5 9 3 9 2 16 -3 14 -13 -3 -60 64
-53 76 3 6 2 7 -4 4 -5 -3 -36 25 -68 63 -33 39 -63 70 -68 70 -5 0 -7 7 -3
15 3 8 1 14 -4 12 -15 -4 -90 64 -83 75 3 6 1 8 -4 5 -12 -8 -84 59 -74 69 3
4 0 4 -6 0 -16 -9 -85 42 -76 57 3 6 1 7 -5 3 -7 -4 -42 13 -79 37 -80 52
-202 117 -220 117 -7 0 -13 4 -13 8 0 5 -21 16 -47 25 -27 9 -85 30 -131 46
-90 32 -373 88 -461 91 -30 0 -57 2 -60 3 -3 1 -64 0 -136 -4z m357 -36 c76
-12 168 -31 205 -42 162 -45 346 -126 468 -206 37 -25 70 -45 73 -45 7 0 109
-77 147 -110 107 -95 147 -135 218 -220 213 -251 352 -549 414 -881 22 -117
24 -464 4 -579 -43 -250 -118 -457 -243 -671 -112 -190 -360 -448 -548 -570
-116 -75 -138 -88 -240 -136 -148 -70 -308 -124 -440 -149 -129 -24 -430 -30
-567 -10 -159 22 -360 74 -448 115 -236 112 -244 116 -365 199 -154 103 -363
318 -467 478 -106 163 -200 371 -247 544 -41 152 -57 264 -63 435 -17 521 189
1020 570 1381 283 269 675 442 1097 488 102 11 303 1 432 -21z m-1802 -2844
c0 -6 -4 -7 -10 -4 -5 3 -10 11 -10 16 0 6 5 7 10 4 6 -3 10 -11 10 -16z
m2831 -272 c-10 -9 -11 -8 -5 6 3 10 9 15 12 12 3 -3 0 -11 -7 -18z"/>
<path d="M2171 7624 c0 -11 3 -14 6 -6 3 7 2 16 -1 19 -3 4 -6 -2 -5 -13z"/>
<path d="M3939 7575 l-117 -65 51 -93 c27 -50 92 -166 143 -257 87 -157 163
-303 233 -452 l31 -66 128 65 c70 36 128 67 130 68 2 1 -21 45 -51 96 -127
222 -256 456 -381 691 -23 43 -43 78 -46 78 -3 0 -57 -29 -121 -65z m145 -23
c16 -31 36 -65 44 -74 8 -9 11 -22 6 -29 -4 -7 -3 -10 3 -6 6 4 14 -4 17 -18
3 -13 17 -41 31 -60 13 -21 21 -43 18 -52 -5 -12 -3 -14 7 -8 10 6 12 4 7 -9
-4 -9 -3 -15 2 -12 4 3 22 -24 38 -60 17 -36 35 -65 39 -64 5 1 11 -7 13 -17
2 -10 15 -36 30 -58 30 -45 71 -129 71 -145 0 -6 4 -8 10 -5 6 4 7 -1 3 -11
-5 -12 -3 -15 6 -9 10 6 11 3 1 -15 -7 -13 -8 -20 -2 -16 6 4 17 -1 24 -9 7
-9 18 -21 24 -28 6 -7 9 -17 7 -24 -2 -6 1 -14 6 -18 18 -11 13 -35 -6 -28
-12 5 -14 3 -8 -7 6 -10 3 -12 -13 -8 -12 4 -20 3 -17 -2 7 -11 -101 -64 -114
-55 -7 4 -10 1 -9 -7 2 -7 -6 -13 -17 -13 -23 0 -87 109 -77 134 3 8 1 12 -5
8 -5 -3 -16 9 -23 28 -7 19 -18 31 -23 28 -6 -3 -7 -1 -4 5 6 8 -48 124 -73
157 -8 11 -24 66 -22 77 1 4 -6 4 -15 1 -13 -5 -15 -2 -10 11 4 10 3 15 -3 11
-6 -4 -13 7 -16 24 -4 16 -15 38 -25 47 -11 9 -19 23 -19 31 0 7 -7 25 -16 38
-9 13 -13 29 -9 35 4 6 1 9 -7 8 -7 -2 -12 5 -12 14 1 10 -2 16 -6 13 -10 -6
-25 33 -21 54 1 8 -2 10 -10 5 -9 -5 -10 -2 -6 10 4 9 3 14 -2 11 -5 -3 -12 4
-16 15 -3 11 -10 20 -15 20 -4 0 -11 7 -14 16 -3 8 -2 12 4 9 6 -3 10 1 10 9
0 15 35 32 59 27 7 -1 10 2 7 7 -4 8 96 71 114 72 3 0 18 -26 34 -58z"/>
<path d="M4360 7000 c0 -5 5 -10 11 -10 5 0 7 5 4 10 -3 6 -8 10 -11 10 -2 0
-4 -4 -4 -10z"/>
<path d="M2186 7524 c-26 -47 -46 -87 -44 -89 2 -3 44 -8 92 -11 63 -5 84 -10
76 -18 -7 -7 -100 -13 -258 -17 -371 -10 -456 -21 -434 -56 6 -9 106 -13 393
-17 l385 -5 36 77 c42 88 43 83 -47 132 -33 18 -79 46 -102 61 -23 16 -43 29
-45 29 -2 0 -25 -39 -52 -86z m107 13 c-3 -4 1 -8 8 -6 8 1 21 1 29 0 13 -1
13 -2 0 -12 -12 -9 -11 -10 7 -6 12 3 27 -1 33 -8 6 -8 25 -17 41 -20 37 -8
38 -32 4 -85 -14 -22 -25 -44 -25 -49 0 -14 -34 -19 -112 -16 -40 1 -152 4
-249 5 -96 1 -182 6 -190 11 -10 6 -2 9 26 10 22 1 74 3 115 5 41 2 135 4 208
5 73 1 130 4 127 7 -2 3 1 12 7 20 16 19 -14 42 -56 43 -75 2 -92 14 -75 52 7
15 16 24 20 21 9 -5 11 0 13 29 2 28 20 35 48 19 15 -9 24 -20 21 -25z m-478
-188 c-4 -5 -22 -9 -41 -9 -46 0 -37 14 10 17 20 1 34 -3 31 -8z"/>
<path d="M2275 7360 c-3 -5 -1 -10 4 -10 6 0 11 5 11 10 0 6 -2 10 -4 10 -3 0
-8 -4 -11 -10z"/>
<path d="M3050 7383 c-133 -25 -192 -69 -272 -198 -79 -128 -141 -252 -134
-270 3 -8 16 -15 29 -15 29 0 120 30 128 42 3 6 10 9 14 8 7 -2 83 60 140 116
94 91 179 96 294 18 20 -13 44 -24 54 -24 10 0 16 -4 13 -9 -3 -5 6 -12 20
-15 48 -13 390 -245 565 -386 l96 -77 75 46 c41 25 86 55 101 66 l26 20 -110
205 c-61 113 -140 261 -176 330 -48 94 -69 124 -81 121 -9 -2 -58 -5 -108 -8
-80 -4 -151 4 -224 25 -22 6 -421 11 -450 5z m383 -13 c40 -7 77 -16 83 -21 6
-5 13 -6 17 -3 3 3 14 1 26 -5 22 -12 211 -16 253 -6 23 6 27 3 38 -32 7 -21
20 -47 30 -58 22 -25 60 -96 60 -112 0 -7 11 -23 24 -38 13 -14 29 -45 36 -70
7 -26 17 -42 23 -38 5 3 7 1 4 -4 -4 -6 2 -22 13 -36 11 -14 20 -30 20 -35 0
-19 27 -62 35 -54 4 4 4 -4 0 -17 -5 -16 -4 -21 4 -17 7 5 11 -4 11 -26 0 -23
3 -29 9 -19 7 11 11 9 21 -9 6 -12 9 -24 6 -27 -3 -3 2 -12 10 -20 8 -8 12
-19 9 -24 -9 -13 -25 -11 -22 2 1 6 -5 14 -13 16 -9 3 -11 1 -5 -4 25 -20 -11
-62 -39 -45 -5 3 -6 0 -2 -6 3 -6 -3 -13 -14 -17 -11 -3 -20 -10 -20 -15 0
-11 -40 -25 -60 -21 -8 2 -19 8 -25 15 -5 7 -30 28 -55 47 -25 18 -46 37 -48
41 -2 5 -10 8 -18 8 -9 0 -12 5 -9 10 3 6 2 10 -4 10 -14 0 -104 61 -114 77
-4 7 -13 13 -20 13 -7 0 -24 11 -38 24 -14 13 -35 27 -47 30 -12 4 -22 11 -22
15 0 4 -12 13 -27 20 -22 10 -24 14 -12 23 11 8 10 9 -4 4 -19 -6 -45 4 -69
26 -28 26 -164 98 -185 98 -7 0 -13 7 -13 15 0 8 -5 15 -11 15 -15 0 -82 32
-90 42 -10 15 -93 20 -124 7 -16 -7 -32 -13 -35 -13 -15 -4 -69 -45 -100 -76
-78 -79 -182 -139 -229 -132 l-28 4 16 34 c10 24 18 30 24 21 5 -7 6 -4 2 9
-3 13 1 26 10 34 8 7 15 19 15 26 0 8 4 14 9 14 5 0 11 14 15 31 3 17 10 28
16 24 5 -3 7 0 4 8 -3 8 3 22 12 32 10 9 26 34 37 54 25 48 97 113 119 107 10
-2 16 1 15 7 -7 34 331 61 476 37z"/>
<path d="M2866 7213 c-6 -14 -5 -15 5 -6 7 7 10 15 7 18 -3 3 -9 -2 -12 -12z"/>
<path d="M4006 6893 c-6 -14 -5 -15 5 -6 7 7 10 15 7 18 -3 3 -9 -2 -12 -12z"/>
<path d="M3996 6618 c3 -4 11 -5 19 -1 21 7 19 12 -4 10 -11 0 -18 -5 -15 -9z"/>
<path d="M2453 7332 c-9 -29 -213 -452 -264 -550 l-49 -93 33 -27 c17 -15 43
-38 56 -51 23 -22 27 -23 78 -11 66 16 122 2 165 -41 16 -16 31 -29 33 -29 2
0 16 11 31 25 30 28 79 40 127 31 65 -12 137 -96 137 -160 0 -19 5 -26 20 -26
32 0 106 -80 115 -126 5 -21 8 -42 7 -45 -1 -4 12 -9 28 -12 34 -7 95 -59 116
-98 18 -36 18 -100 -1 -146 -19 -46 -19 -53 4 -53 21 0 35 25 24 43 -3 5 -6
48 -6 93 0 53 -4 81 -10 77 -7 -4 -8 1 -3 13 4 10 4 16 1 13 -3 -4 -22 9 -43
28 -20 19 -49 37 -65 40 -15 3 -30 10 -34 16 -3 6 -1 7 6 3 8 -5 6 6 -4 31 -9
21 -19 45 -23 53 -6 16 -29 39 -79 79 -20 15 -35 40 -43 72 -7 26 -17 46 -21
43 -4 -2 -10 5 -14 16 -4 11 -10 18 -14 15 -5 -2 -16 4 -26 15 -37 41 -124 51
-187 20 -45 -21 -83 -18 -74 6 3 9 1 12 -4 9 -15 -9 -51 5 -44 17 4 6 -1 8
-12 4 -11 -3 -35 -1 -54 4 -24 7 -36 6 -41 -1 -5 -9 -15 -9 -38 -1 -20 7 -31
7 -31 1 0 -6 -4 -8 -10 -4 -5 3 -7 13 -4 23 4 12 3 13 -3 4 -7 -9 -16 -5 -38
18 -24 25 -26 30 -11 36 13 5 14 9 5 20 -8 10 -8 14 0 14 6 0 11 7 11 15 0 8
9 24 20 35 11 11 20 23 20 28 -1 4 7 24 16 45 13 28 20 34 27 25 6 -9 7 -8 3
5 -3 9 -3 24 0 32 5 13 9 13 22 3 13 -11 14 -10 5 7 -9 16 -5 33 19 85 17 36
35 68 40 71 5 3 8 10 6 15 -1 5 6 21 15 36 10 14 19 35 20 46 1 13 6 18 16 14
9 -3 12 -1 7 6 -10 17 3 54 16 46 7 -5 9 -1 5 9 -3 8 2 24 11 35 15 17 21 18
40 8 13 -7 19 -15 16 -19 -6 -6 17 -11 38 -9 3 1 12 -5 18 -13 7 -8 23 -15 36
-15 13 0 24 -4 24 -10 0 -5 7 -7 15 -4 8 4 15 1 15 -5 0 -6 7 -11 15 -11 8 0
15 -4 15 -10 0 -5 -4 -10 -10 -10 -5 0 -6 -7 -3 -17 4 -10 2 -14 -4 -10 -6 4
-13 -5 -16 -22 -3 -16 -13 -36 -22 -44 -8 -9 -15 -20 -15 -26 0 -6 -3 -11 -8
-11 -12 0 -46 -101 -48 -146 -2 -30 3 -47 18 -64 17 -18 18 -24 7 -31 -8 -5
-9 -9 -4 -9 6 0 16 5 21 10 7 7 20 7 34 2 13 -5 47 -5 77 0 30 5 59 5 65 2 7
-4 8 -2 4 4 -4 7 -2 12 5 12 25 0 146 85 200 140 67 69 102 81 163 54 22 -10
43 -21 46 -25 3 -3 15 -11 28 -18 16 -8 22 -9 22 0 0 6 -9 13 -20 16 -11 3
-20 9 -20 12 0 4 -22 18 -50 31 -44 21 -54 22 -89 12 -23 -7 -60 -33 -92 -65
-83 -82 -132 -116 -199 -137 -84 -27 -149 -26 -179 2 -20 18 -23 28 -18 69 7
54 21 85 83 179 23 36 45 76 49 90 6 24 2 26 -68 49 -41 13 -102 38 -136 56
-55 29 -63 31 -68 17z m657 -1382 c0 -5 -4 -10 -10 -10 -5 0 -10 5 -10 10 0 6
5 10 10 10 6 0 10 -4 10 -10z"/>
<path d="M2048 7239 c-3 -20 -10 -21 -148 -22 l-145 -2 -3 -27 c-5 -45 22 -52
231 -58 103 -3 187 -2 187 2 0 10 -67 16 -225 22 -151 5 -182 11 -165 31 6 8
50 12 133 13 121 1 177 11 177 32 0 5 16 10 36 10 24 0 33 -4 28 -12 -5 -7 -3
-8 6 -3 22 14 160 18 160 5 0 -6 -20 -53 -46 -104 l-45 -94 -42 -4 c-51 -6
-76 0 -55 13 9 6 9 9 1 9 -6 0 -14 -4 -18 -10 -6 -10 -492 -6 -502 4 -4 3 5 6
18 6 13 0 131 1 261 3 220 3 240 4 265 23 37 28 44 53 7 27 -28 -20 -45 -21
-363 -25 -274 -4 -334 -7 -342 -19 -5 -8 -7 -18 -6 -24 6 -18 164 -25 481 -23
l310 3 26 60 c14 33 39 85 57 115 17 30 31 56 30 57 -2 1 -71 4 -154 7 -147 5
-152 5 -155 -15z"/>
<path d="M3270 7001 c0 -6 4 -13 10 -16 6 -3 7 1 4 9 -7 18 -14 21 -14 7z"/>
<path d="M3315 6960 c-4 -6 5 -10 20 -10 14 0 24 -4 21 -8 -3 -4 11 -16 29
-26 19 -11 32 -23 28 -29 -3 -6 -1 -7 5 -3 13 7 122 -59 122 -75 0 -6 3 -8 8
-5 9 5 48 -22 45 -32 0 -4 4 -6 9 -4 14 4 39 -18 32 -29 -3 -5 1 -7 8 -4 16 6
62 -31 54 -44 -7 -10 21 -24 34 -16 4 3 13 -2 20 -10 11 -13 10 -14 -6 -9 -15
4 -16 4 -5 -4 8 -6 20 -8 26 -5 7 2 19 -2 26 -9 8 -8 31 -24 51 -36 20 -13 49
-37 64 -55 15 -18 30 -31 33 -29 3 1 6 -1 6 -5 0 -17 18 -34 30 -29 22 8 40
-80 19 -92 -7 -4 -12 -11 -12 -17 0 -5 -18 -13 -39 -18 -44 -8 -93 7 -131 43
-12 12 -36 26 -53 32 -28 10 -29 11 -12 25 16 13 16 13 -6 3 -13 -7 -26 -8
-30 -4 -10 14 -178 114 -191 114 -7 0 -10 6 -7 13 3 7 -4 12 -17 13 -11 0 -28
4 -36 7 -16 7 -58 -18 -48 -28 3 -3 12 1 20 9 13 13 24 9 94 -33 88 -53 176
-107 276 -170 37 -24 85 -45 106 -48 49 -7 99 18 113 55 28 74 -17 128 -241
284 -120 84 -255 175 -318 215 -37 23 -81 51 -98 63 -34 23 -40 24 -49 10z
m655 -460 c0 -5 -2 -10 -4 -10 -3 0 -8 5 -11 10 -3 6 -1 10 4 10 6 0 11 -4 11
-10z"/>
<path d="M1878 6945 c-3 -4 -27 -11 -53 -18 -45 -11 -77 -38 -63 -52 12 -12
142 -17 271 -10 l134 7 16 32 15 33 -96 6 c-119 8 -217 9 -224 2z m225 -24 c5
-1 5 -5 2 -11 -4 -7 3 -7 20 0 39 15 52 13 34 -5 -20 -21 -304 -28 -287 -7 15
17 2 15 -16 -4 -14 -13 -16 -13 -16 -1 0 32 75 39 263 28z"/>
<path d="M2048 6903 c6 -2 18 -2 25 0 6 3 1 5 -13 5 -14 0 -19 -2 -12 -5z"/>
<path d="M2300 6901 c0 -6 4 -13 10 -16 6 -3 7 1 4 9 -7 18 -14 21 -14 7z"/>
<path d="M1774 6809 c-5 -9 203 -127 247 -139 24 -7 35 -6 41 3 17 24 69 129
66 132 -7 7 -349 11 -354 4z m216 -19 c81 0 105 -15 87 -54 -7 -13 -15 -22
-19 -20 -5 3 -8 -2 -8 -10 0 -9 -9 -16 -20 -16 -11 0 -20 4 -20 8 0 4 -10 9
-22 9 -13 1 -24 7 -26 13 -2 5 -10 10 -18 10 -8 0 -17 6 -20 14 -3 8 -12 12
-19 10 -7 -3 -18 3 -24 14 -12 22 2 34 27 26 8 -2 44 -4 82 -4z"/>
<path d="M1890 6786 c0 -2 7 -7 16 -10 8 -3 12 -2 9 4 -6 10 -25 14 -25 6z"/>
<path d="M2211 6754 c0 -11 3 -14 6 -6 3 7 2 16 -1 19 -3 4 -6 -2 -5 -13z"/>
<path d="M1627 6604 c-15 -15 -6 -42 16 -48 34 -9 535 -7 541 2 3 5 -1 18 -10
30 -14 20 -22 21 -277 22 -145 0 -266 -3 -270 -6z m98 -24 c-6 -10 -64 -10
-69 -1 -2 3 14 7 35 8 22 1 37 -2 34 -7z m90 0 c-11 -5 -27 -9 -35 -9 -9 0 -8
4 5 9 11 5 27 9 35 9 9 0 8 -4 -5 -9z m88 3 c-13 -2 -33 -2 -45 0 -13 2 -3 4
22 4 25 0 35 -2 23 -4z m222 -2 c-6 -11 -195 -10 -195 1 0 3 45 7 101 7 59 1
98 -3 94 -8z"/>
<path d="M3795 6600 c3 -5 11 -10 16 -10 6 0 7 5 4 10 -3 6 -11 10 -16 10 -6
0 -7 -4 -4 -10z"/>
<path d="M3392 6547 c3 -7 31 -25 64 -42 32 -16 73 -39 89 -50 17 -12 47 -30
68 -40 21 -11 48 -29 60 -40 12 -11 23 -19 24 -17 17 15 98 -63 107 -103 4
-20 4 -25 -3 -16 -7 11 -10 9 -13 -10 -2 -13 -9 -23 -16 -21 -6 1 -12 -3 -12
-9 0 -5 -4 -8 -8 -5 -4 2 -14 1 -22 -4 -15 -9 -62 8 -55 21 3 4 -4 5 -15 2
-11 -3 -20 -1 -20 4 0 5 -16 15 -35 22 -19 7 -35 17 -35 22 0 5 -7 9 -15 9 -8
0 -15 5 -15 11 0 5 -4 8 -9 4 -5 -3 -12 -1 -16 5 -12 19 -150 100 -171 100
-16 0 12 -21 61 -45 30 -16 55 -32 55 -37 0 -4 5 -8 11 -8 6 0 39 -20 73 -45
152 -108 238 -116 276 -26 21 51 -6 92 -91 140 -41 23 -96 56 -124 73 -84 53
-217 118 -213 105z"/>
<path d="M2284 6509 c-37 -41 -53 -44 -293 -49 -166 -4 -235 -8 -238 -17 -6
-18 86 -31 267 -38 162 -5 194 -1 188 25 -2 7 10 16 26 21 16 4 37 17 48 29
10 11 24 17 30 14 7 -4 8 -2 4 4 -5 8 5 12 31 12 45 0 69 -13 58 -30 -5 -8 -4
-11 2 -7 10 7 29 -23 36 -58 3 -11 5 -3 6 17 1 26 -7 45 -25 67 -22 27 -33 31
-73 31 -36 0 -53 -5 -67 -21z"/>
<path d="M2572 6491 c-45 -48 -54 -61 -61 -89 -7 -26 -10 -27 -67 -24 -32 2
-97 8 -143 13 l-84 10 -31 -30 -31 -29 -142 -1 c-139 -2 -173 -5 -173 -20 0
-5 17 -13 39 -19 51 -16 665 -16 638 -1 -11 6 -88 11 -187 11 -111 0 -172 4
-177 11 -4 6 0 8 10 4 9 -3 18 0 21 9 3 9 11 12 17 8 7 -4 9 -3 6 2 -3 6 -2
16 3 24 11 17 44 16 177 -6 105 -17 125 -12 147 39 21 51 70 97 103 97 22 0
25 -2 13 -11 -12 -8 -11 -9 6 -4 23 6 54 -29 54 -61 0 -17 -44 -82 -64 -96 -6
-4 -7 -8 -3 -8 4 0 -3 -11 -17 -25 -14 -14 -29 -33 -34 -42 -9 -15 -12 -15
-29 -3 -17 14 -17 14 -1 -5 16 -19 15 -22 -14 -54 -25 -28 -39 -35 -74 -36
-24 -2 -44 2 -44 6 0 5 -7 9 -16 9 -8 0 -13 3 -11 8 3 4 -34 6 -81 4 -48 -2
-84 -1 -80 3 5 6 56 9 218 14 20 1 22 3 10 11 -12 8 -11 10 7 10 13 0 31 13
43 30 12 17 17 30 11 30 -5 0 -13 -5 -16 -10 -3 -6 -21 -18 -38 -27 -27 -15
-71 -19 -284 -23 -256 -5 -293 -11 -257 -41 13 -11 69 -15 243 -19 154 -3 233
-9 248 -17 55 -32 120 0 169 84 15 26 35 53 43 59 9 7 33 37 55 68 33 48 37
61 32 91 -4 20 -11 33 -17 30 -5 -4 -9 0 -9 8 0 17 -42 37 -76 37 -15 0 -36
-12 -52 -29z m-380 -302 c-15 -6 -30 -5 -40 1 -13 7 -8 9 23 9 35 0 37 -1 17
-10z m-144 -6 c-10 -2 -26 -2 -35 0 -10 3 -2 5 17 5 19 0 27 -2 18 -5z"/>
<path d="M3880 6376 c0 -2 7 -7 16 -10 8 -3 12 -2 9 4 -6 10 -25 14 -25 6z"/>
<path d="M3290 6340 c0 -5 4 -10 8 -10 4 0 37 -19 73 -42 36 -24 106 -70 157
-102 87 -56 105 -77 82 -91 -5 -3 -10 -12 -10 -18 0 -7 4 -6 10 3 5 8 10 10
10 4 0 -20 -28 -36 -52 -29 -18 5 -20 4 -8 -4 29 -20 -73 -12 -115 9 -22 11
-44 20 -51 20 -6 0 -21 9 -34 20 -13 11 -29 20 -37 20 -7 0 -13 5 -13 10 0 6
-7 10 -15 10 -9 0 -18 7 -21 15 -4 8 -14 15 -23 15 -9 0 -25 7 -35 15 -21 16
-31 13 -46 -16 -7 -13 -7 -19 0 -19 5 0 10 7 10 16 0 21 31 11 96 -32 28 -19
56 -34 62 -34 6 0 12 -4 14 -8 7 -18 143 -75 178 -75 46 0 98 27 112 58 20 45
-22 83 -237 209 -114 67 -115 68 -115 56z"/>
<path d="M2737 6317 c-10 -12 -52 -68 -94 -124 l-75 -103 -66 -1 c-37 -1 -124
0 -193 1 -139 2 -199 -6 -199 -25 0 -18 53 -25 254 -32 162 -6 183 -8 223 -30
24 -12 53 -23 64 -23 29 0 71 25 96 57 12 15 40 48 62 72 60 66 76 105 62 152
-23 75 -95 105 -134 56z m108 -35 c10 -20 20 -41 23 -46 3 -5 -1 -6 -8 -1 -10
6 -12 4 -7 -9 8 -21 -30 -89 -44 -81 -5 4 -6 -1 -3 -9 4 -10 -3 -20 -20 -27
-14 -7 -26 -17 -26 -24 0 -17 -68 -74 -98 -82 -18 -4 -38 1 -63 15 -21 12 -46
22 -56 22 -12 0 -14 3 -6 8 7 4 -20 7 -60 6 -40 -1 -92 1 -117 5 -35 6 -23 8
55 8 104 1 143 5 162 16 6 4 19 4 30 1 15 -5 16 -4 3 5 -13 10 -12 14 8 30 12
11 22 26 22 34 0 18 34 49 45 40 4 -5 5 2 1 13 -4 15 -2 24 8 27 11 4 13 1 9
-11 -3 -9 -3 -14 1 -11 4 4 9 16 11 28 7 39 47 78 82 79 27 1 33 -4 48 -36z
m-562 -219 c-7 -2 -19 -2 -25 0 -7 3 -2 5 12 5 14 0 19 -2 13 -5z"/>
<path d="M2913 6150 c-31 -13 -143 -167 -143 -197 0 -66 88 -120 146 -90 46
25 79 59 103 104 21 42 29 113 12 113 -5 0 -12 11 -15 25 -3 13 -20 31 -36 40
-33 17 -36 17 -67 5z m68 -29 c24 -18 32 -49 32 -113 0 -36 -48 -98 -76 -98
-16 0 -19 -3 -8 -9 17 -11 -6 -18 -64 -19 -30 -1 -35 1 -20 7 18 8 16 9 -10
12 -27 4 -30 8 -33 41 -3 31 5 49 43 103 46 64 79 95 101 95 6 0 22 -9 35 -19z"/>
<path d="M3170 6130 c0 -5 7 -10 16 -10 11 0 14 -5 10 -17 -4 -10 -4 -14 -1
-11 7 7 86 -18 95 -30 13 -17 78 -61 84 -55 6 7 36 -15 36 -27 0 -5 -17 -14
-37 -21 -21 -6 -43 -16 -50 -21 -7 -5 -49 -9 -95 -8 -104 2 -124 0 -73 -10 65
-13 174 -1 242 27 66 27 76 37 42 48 -11 4 -48 23 -82 42 -127 74 -187 103
-187 93z"/>
<path d="M3766 8532 c-13 -12 -4 -20 39 -32 25 -7 45 -15 45 -19 0 -8 50 -31
66 -31 7 0 14 -3 16 -7 2 -5 20 -16 41 -26 21 -9 35 -22 32 -27 -3 -5 1 -7 9
-4 15 6 32 -5 63 -38 9 -9 20 -15 24 -13 4 3 21 -8 38 -24 16 -15 33 -26 36
-22 3 3 3 -2 0 -11 -4 -9 0 -18 9 -21 11 -4 13 -1 9 10 -5 12 2 10 25 -7 17
-13 28 -28 25 -33 -3 -6 -2 -7 4 -4 5 4 20 -5 31 -18 12 -14 19 -25 14 -25 -9
-1 30 -24 40 -25 8 0 44 -34 76 -69 9 -11 29 -32 43 -47 15 -16 25 -31 23 -34
-2 -3 -1 -3 2 0 4 2 19 -12 35 -33 16 -20 36 -45 45 -54 9 -9 13 -22 8 -29 -5
-8 -3 -10 6 -4 10 6 12 4 7 -8 -4 -10 -2 -14 6 -11 7 2 21 -10 31 -28 11 -18
25 -37 33 -41 7 -4 13 -13 13 -20 0 -7 -4 -6 -10 3 -6 10 -10 11 -10 3 0 -7 9
-18 19 -25 15 -9 17 -17 10 -37 -8 -23 -8 -24 4 -9 14 18 28 15 23 -5 -2 -7
-1 -8 2 -3 3 5 15 -15 27 -45 13 -30 21 -57 19 -61 -3 -4 3 -5 12 -1 12 4 15
3 10 -6 -5 -7 -1 -18 10 -25 10 -8 15 -20 11 -30 -4 -9 -2 -16 3 -16 6 0 10
-6 10 -14 0 -8 6 -21 14 -29 8 -8 20 -34 26 -58 6 -24 18 -58 25 -75 8 -17 27
-80 43 -140 15 -60 30 -114 34 -119 9 -16 22 -115 20 -163 0 -23 2 -41 6 -38
7 4 8 -123 3 -374 -2 -101 -33 -283 -52 -304 -5 -6 -9 -24 -9 -40 0 -24 -3
-27 -10 -16 -6 9 -10 10 -10 3 0 -6 5 -15 10 -18 8 -5 8 -11 0 -20 -6 -7 -12
-21 -14 -31 -9 -40 -63 -164 -70 -157 -4 4 -4 0 -1 -9 4 -10 -2 -34 -13 -55
-11 -21 -25 -49 -31 -63 l-10 -25 3 25 c2 14 1 19 -1 12 -3 -7 -9 -10 -14 -7
-5 3 -6 -1 -3 -10 4 -8 1 -22 -6 -30 -11 -13 -10 -14 6 -8 17 6 17 5 5 -10 -7
-9 -17 -14 -22 -11 -5 3 -7 -1 -4 -8 7 -19 -53 -120 -67 -112 -6 4 -8 3 -5 -4
9 -14 -3 -43 -14 -36 -5 3 -9 -1 -9 -9 0 -8 -14 -28 -31 -45 -19 -19 -28 -35
-24 -43 5 -7 4 -10 -1 -6 -5 3 -21 -11 -34 -31 -13 -20 -25 -39 -27 -41 -1 -2
-10 2 -20 10 -11 9 -14 10 -9 1 10 -16 -34 -94 -50 -88 -15 6 -37 -18 -27 -28
8 -8 -29 -36 -39 -30 -5 3 -8 -2 -8 -11 0 -10 -5 -13 -12 -9 -6 4 -8 3 -5 -2
8 -13 -57 -75 -74 -71 -8 2 -11 2 -6 0 14 -9 7 -25 -9 -19 -8 3 -13 2 -10 -3
3 -4 -3 -16 -14 -26 -11 -10 -20 -14 -20 -9 0 5 -5 1 -11 -8 -5 -10 -17 -18
-24 -18 -8 0 -15 -4 -15 -10 0 -5 -7 -10 -15 -10 -8 0 -15 -4 -15 -8 0 -27
-331 -206 -364 -197 -16 5 -17 4 -7 -3 11 -8 4 -13 -30 -22 -24 -7 -46 -15
-49 -19 -12 -16 -112 -43 -138 -37 -18 5 -23 4 -13 -3 10 -7 1 -11 -35 -16
-27 -4 -55 -12 -61 -17 -7 -6 -13 -8 -13 -5 0 3 -25 -1 -55 -9 -30 -8 -91 -16
-136 -19 -80 -4 -120 -14 -63 -16 111 -3 355 46 519 106 281 102 547 273 746
480 217 226 361 461 463 754 77 222 97 339 103 598 6 255 0 317 -57 538 -73
285 -162 467 -372 764 -48 68 -254 269 -347 339 -135 102 -438 271 -455 254z"/>
<path d="M1366 7598 c3 -5 10 -6 15 -3 13 9 11 12 -6 12 -8 0 -12 -4 -9 -9z"/>
<path d="M1246 7533 c-6 -14 -5 -15 5 -6 7 7 10 15 7 18 -3 3 -9 -2 -12 -12z"/>
<path d="M1426 5587 c3 -10 9 -15 12 -12 3 3 0 11 -7 18 -10 9 -11 8 -5 -6z"/>
<path d="M2870 4830 c-9 -6 -10 -10 -3 -10 6 0 15 5 18 10 8 12 4 12 -15 0z"/>
</g>
</svg>
